<svg xmlns="http://www.w3.org/2000/svg" version="1.1" xmlns:xlink="http://www.w3.org/1999/xlink" viewBox="0 0 9.77947998046875 10.002645079150861"><g transform="matrix(0.8571428571428571,0,0,0.8571428571428571,1.3970685686383932,7.676779003463746)"><g transform="matrix(1,0,0,1,0,0)" clip-path="url(#SvgjsClipPath121739)"><g clip-path="url(#SvgjsClipPath1217371e2b1b97-83a4-4a28-96b1-f75832f1807d)"><path d=" M 2.5641346587375358 -2.307034732698491 L 1.8980612249187963 -2.4725973566454895 L 1.8980612249187963 -4.3143712709972615 L 2.5641346587375358 -4.488461987474389 L 2.5641346587375358 -2.307034732698491 L 2.5641346587375358 -2.307034732698491 Z" fill="#f01819" transform="matrix(1,0,0,1,0,0)" fill-rule="evenodd"></path></g><g clip-path="url(#SvgjsClipPath1217371e2b1b97-83a4-4a28-96b1-f75832f1807d)"><path d=" M 2.5641346587375358 -4.488167915318179 L 3.2302080925562753 -4.662258631795306 L 3.2302080925562753 -2.1414721087514934 L 2.5641346587375358 -2.307034732698491 L 2.5641346587375358 -4.488461987474389 L 2.5641346587375358 -4.488461987474389 Z" fill="#fdb52f" transform="matrix(1,0,0,1,0,0)" fill-rule="evenodd"></path></g><g clip-path="url(#SvgjsClipPath1217371e2b1b97-83a4-4a28-96b1-f75832f1807d)"><path d=" M 3.2302080925562753 -4.662258631795306 L 3.896281526375015 -4.836349348272433 L 3.896281526375015 -1.9759094848044967 L 3.2302080925562753 -2.1411780365952833 L 3.2302080925562753 -4.661964559639095 L 3.2302080925562753 -4.661964559639095 Z" fill="#96c930" transform="matrix(1,0,0,1,0,0)" fill-rule="evenodd"></path></g><g clip-path="url(#SvgjsClipPath1217371e2b1b97-83a4-4a28-96b1-f75832f1807d)"><path d=" M 3.896281526375015 -4.836349348272433 L 4.562354960193755 -5.010440064749561 L 4.562354960193755 -1.8106409330137083 L 3.896281526375015 -1.9762035569607068 L 3.896281526375015 -4.836643420428644 L 3.896281526375015 -4.836643420428644 Z" fill="#37a1eb" transform="matrix(1,0,0,1,0,0)" fill-rule="evenodd"></path></g><g clip-path="url(#SvgjsClipPath1217371e2b1b97-83a4-4a28-96b1-f75832f1807d)"><path d=" M 4.562060888037543 -5.010440064749561 L 5.228134321856282 -5.184530781226688 L 5.228134321856282 -1.6450783090667116 L 4.562060888037543 -1.8106409330137083 L 4.562060888037543 -5.010440064749561 L 4.562060888037543 -5.010440064749561 Z" fill="#922990" transform="matrix(1,0,0,1,0,0)" fill-rule="evenodd"></path></g><g clip-path="url(#SvgjsClipPath1217371e2b1b97-83a4-4a28-96b1-f75832f1807d)"><path d=" M 6.921107725165104 -6.582255739699302 C 6.896699736199561 -6.582255739699302 6.873468035858863 -6.578138729512343 6.851706696299222 -6.5704928534508475 L 3.588093906665504 -5.7173895282816805 L 4.468840014518539 -6.9807235113657 C 4.534418105353674 -7.075120673509548 4.511186405012976 -7.20480649439876 4.416789242869129 -7.270384585233893 C 4.3223920807252805 -7.335962676069028 4.1927062598360685 -7.31273097572833 4.127128169000935 -7.218333813584482 L 3.0649395407654887 -5.694745972253405 L 2.0065738505607893 -6.736055477397845 C 1.9248217911340304 -6.816631248199759 1.7930774651513395 -6.815454959574914 1.7127957665056368 -6.733702900148154 C 1.6322199957037231 -6.651950840721395 1.6333962843285685 -6.520206514738704 1.7151483437553279 -6.439924816093002 L 2.6885271808149422 -5.482131803312589 L 1.1764081535761088 -5.086898825364516 C 1.082893207900895 -5.062784908555184 1.0208439829402973 -4.9783861997225225 1.0208439829402973 -4.885753470515943 L 1.0202558386278746 -4.885753470515943 L 1.0202558386278746 -1.871807941505673 C 1.0202558386278746 -1.768882686831696 1.094950166305561 -1.683307689374189 1.1928761943239452 -1.6665455764701411 L 6.871703602921595 -0.25617551528043947 C 6.983156950125703 -0.2288268047527824 7.095786585954655 -0.2970515449938187 7.123135296482313 -0.40850489219792596 C 7.127252306669272 -0.4252670051019738 7.1293108117627515 -0.4417350458498097 7.1293108117627515 -0.4582030865976465 L 7.129898956075174 -0.4582030865976465 L 7.129898956075174 -6.374052653101656 C 7.129898956075174 -6.489034866180299 7.036678082556173 -6.582549811855513 6.921401797321317 -6.582549811855513 Z M 6.712904638567459 -0.7237502436565091 L 1.436662011823166 -2.034135771734346 L 1.436662011823166 -4.725484145380749 L 6.7129046385674584 -6.104976630168258 L 6.7129046385674584 -0.7240443158127192 Z M 5.6095459084624215 -3.974423858416926 C 5.6095459084624215 -4.149102719206477 5.751288687756299 -4.290551426344142 5.925673476389638 -4.290551426344142 C 6.100058265022977 -4.290551426344142 6.241801044316855 -4.148808647050265 6.241801044316855 -3.974423858416926 C 6.241801044316855 -3.800039069783587 6.100058265022977 -3.6582962904897096 5.925673476389638 -3.6582962904897096 C 5.751288687756299 -3.6582962904897096 5.6095459084624215 -3.800039069783587 5.6095459084624215 -3.974423858416926 Z M 5.6095459084624215 -2.858125953438588 C 5.6095459084624215 -3.032804814228138 5.751288687756299 -3.174253521365804 5.925673476389638 -3.174253521365804 C 6.100058265022977 -3.174253521365804 6.241801044316855 -3.032510742071927 6.241801044316855 -2.858125953438588 C 6.241801044316855 -2.683741164805249 6.100058265022977 -2.5419983855113717 5.925673476389638 -2.5419983855113717 C 5.751288687756299 -2.5419983855113717 5.6095459084624215 -2.683447092649038 5.6095459084624215 -2.858125953438588 Z" fill="#000000" transform="matrix(1,0,0,1,0,0)" fill-rule="evenodd"></path></g></g><g><path d=" M 1.176 1.0574999999999999 L 1.1745 0.15899999999999992 L 0.735 0.9179999999999999 L 0.6975 0.9179999999999999 L 0.258 0.1619999999999998 L 0.258 1.0574999999999999 L 0.183 1.0574999999999999 L 0.183 0.00749999999999984 L 0.2475 0.00749999999999984 L 0.717 0.8189999999999998 L 1.1865 0.00749999999999984 L 1.2495 0.00749999999999984 L 1.2510000000000001 1.0574999999999999 L 1.176 1.0574999999999999 M 1.928990478515625 0.5399999999999999 L 1.693490478515625 0.7814999999999999 L 1.693490478515625 1.0574999999999999 L 1.616990478515625 1.0574999999999999 L 1.616990478515625 0.00749999999999984 L 1.693490478515625 0.00749999999999984 L 1.693490478515625 0.6824999999999999 L 2.348990478515625 0.00749999999999984 L 2.441990478515625 0.00749999999999984 L 1.979990478515625 0.4844999999999998 L 2.4734904785156253 1.0574999999999999 L 2.380490478515625 1.0574999999999999 L 1.928990478515625 0.5399999999999999 M 3.45002783203125 0.00749999999999984 L 2.98202783203125 1.0574999999999999 L 2.90552783203125 1.0574999999999999 L 2.43752783203125 0.00749999999999984 L 2.52152783203125 0.00749999999999984 L 2.94602783203125 0.9584999999999999 L 3.37052783203125 0.00749999999999984 L 3.45002783203125 0.00749999999999984 M 4.24204541015625 0.9884999999999999 L 4.24204541015625 1.0574999999999999 L 3.52054541015625 1.0574999999999999 L 3.52054541015625 1.0034999999999998 L 3.96454541015625 0.5624999999999999 Q 4.05154541015625 0.4754999999999999 4.08229541015625 0.4132499999999999 Q 4.11304541015625 0.35099999999999987 4.11304541015625 0.2849999999999999 Q 4.11304541015625 0.1844999999999999 4.04479541015625 0.12749999999999984 Q 3.97654541015625 0.0704999999999999 3.84754541015625 0.0704999999999999 Q 3.74854541015625 0.0704999999999999 3.67429541015625 0.10049999999999981 Q 3.60004541015625 0.13049999999999984 3.54604541015625 0.19199999999999984 L 3.49204541015625 0.1439999999999999 Q 3.55204541015625 0.07499999999999984 3.64429541015625 0.03749999999999987 Q 3.73654541015625 -2.220446049250313e-16 3.85354541015625 -2.220446049250313e-16 Q 4.00804541015625 -2.220446049250313e-16 4.09954541015625 0.07499999999999984 Q 4.19104541015625 0.1499999999999999 4.19104541015625 0.27749999999999986 Q 4.19104541015625 0.3584999999999998 4.15504541015625 0.43199999999999983 Q 4.11904541015625 0.5054999999999998 4.02004541015625 0.6029999999999999 L 3.63304541015625 0.9884999999999999 L 4.24204541015625 0.9884999999999999 M 4.65227783203125 0.9959999999999999 Q 4.52852783203125 0.9269999999999998 4.45727783203125 0.8054999999999999 Q 4.38602783203125 0.6839999999999999 4.38602783203125 0.5324999999999999 Q 4.38602783203125 0.3809999999999999 4.45727783203125 0.25949999999999984 Q 4.52852783203125 0.1379999999999999 4.65227783203125 0.06899999999999984 Q 4.77602783203125 -2.220446049250313e-16 4.93052783203125 -2.220446049250313e-16 Q 5.04452783203125 -2.220446049250313e-16 5.14052783203125 0.03674999999999984 Q 5.23652783203125 0.0734999999999999 5.30402783203125 0.14549999999999985 L 5.25602783203125 0.19499999999999984 Q 5.13002783203125 0.0704999999999999 4.93352783203125 0.0704999999999999 Q 4.80152783203125 0.0704999999999999 4.69352783203125 0.13049999999999984 Q 4.58552783203125 0.1904999999999999 4.52402783203125 0.2962499999999999 Q 4.46252783203125 0.4019999999999999 4.46252783203125 0.5324999999999999 Q 4.46252783203125 0.6629999999999998 4.52402783203125 0.7687499999999998 Q 4.58552783203125 0.8744999999999998 4.69352783203125 0.9344999999999999 Q 4.80152783203125 0.9944999999999999 4.93352783203125 0.9944999999999999 Q 5.12852783203125 0.9944999999999999 5.25602783203125 0.8684999999999998 L 5.30402783203125 0.9179999999999999 Q 5.23652783203125 0.9899999999999999 5.13977783203125 1.0274999999999999 Q 5.04302783203125 1.065 4.93052783203125 1.065 Q 4.77602783203125 1.065 4.65227783203125 0.9959999999999999 M 6.18156005859375 0.7619999999999999 L 5.57256005859375 0.7619999999999999 L 5.43906005859375 1.0574999999999999 L 5.35656005859375 1.0574999999999999 L 5.83956005859375 0.00749999999999984 L 5.91606005859375 0.00749999999999984 L 6.39906005859375 1.0574999999999999 L 6.31656005859375 1.0574999999999999 L 6.18156005859375 0.7619999999999999 M 6.15306005859375 0.6974999999999999 L 5.8770600585937505 0.09149999999999991 L 5.60256005859375 0.6974999999999999 L 6.15306005859375 0.6974999999999999 M 6.645835693359375 1.0252499999999998 Q 6.541585693359375 0.9854999999999998 6.483085693359375 0.9224999999999999 L 6.517585693359375 0.8654999999999999 Q 6.573085693359375 0.9239999999999999 6.666835693359375 0.9607499999999999 Q 6.760585693359375 0.9974999999999998 6.864085693359375 0.9974999999999998 Q 7.014085693359375 0.9974999999999998 7.090585693359375 0.9404999999999999 Q 7.167085693359375 0.8834999999999998 7.167085693359375 0.7919999999999998 Q 7.167085693359375 0.7214999999999998 7.126585693359375 0.6794999999999999 Q 7.086085693359375 0.6375 7.026085693359375 0.6149999999999999 Q 6.966085693359375 0.5924999999999998 6.864085693359375 0.5684999999999999 Q 6.748585693359375 0.5399999999999999 6.678835693359375 0.5129999999999999 Q 6.609085693359375 0.4859999999999999 6.560335693359375 0.42974999999999985 Q 6.511585693359375 0.37349999999999983 6.511585693359375 0.2789999999999999 Q 6.511585693359375 0.2024999999999999 6.552085693359375 0.13874999999999982 Q 6.592585693359375 0.07499999999999984 6.6758356933593745 0.03749999999999987 Q 6.759085693359375 -2.220446049250313e-16 6.883585693359375 -2.220446049250313e-16 Q 6.970585693359375 -2.220446049250313e-16 7.054585693359375 0.025499999999999856 Q 7.138585693359375 0.050999999999999934 7.200085693359375 0.09449999999999992 L 7.171585693359375 0.15599999999999992 Q 7.108585693359375 0.11249999999999982 7.032835693359375 0.08999999999999986 Q 6.9570856933593745 0.0674999999999999 6.883585693359375 0.0674999999999999 Q 6.738085693359375 0.0674999999999999 6.663085693359375 0.1259999999999999 Q 6.588085693359375 0.1844999999999999 6.588085693359375 0.27749999999999986 Q 6.588085693359375 0.34799999999999986 6.628585693359375 0.3899999999999999 Q 6.669085693359375 0.43199999999999983 6.729085693359375 0.4544999999999999 Q 6.789085693359375 0.47699999999999987 6.892585693359375 0.5024999999999998 Q 7.008085693359375 0.5309999999999999 7.077085693359375 0.5579999999999998 Q 7.146085693359375 0.5849999999999999 7.194835693359375 0.6397499999999998 Q 7.243585693359375 0.6944999999999999 7.243585693359375 0.7874999999999999 Q 7.243585693359375 0.8639999999999999 7.202335693359375 0.9269999999999998 Q 7.161085693359375 0.9899999999999999 7.0755856933593755 1.0274999999999999 Q 6.990085693359375 1.065 6.865585693359375 1.065 Q 6.750085693359375 1.065 6.645835693359375 1.0252499999999998 M 7.689084228515625 0.0764999999999999 L 7.311084228515625 0.0764999999999999 L 7.311084228515625 0.00749999999999984 L 8.143584228515625 0.00749999999999984 L 8.143584228515625 0.0764999999999999 L 7.765584228515625 0.0764999999999999 L 7.765584228515625 1.0574999999999999 L 7.689084228515625 1.0574999999999999 L 7.689084228515625 0.0764999999999999" fill="#382d5e" fill-rule="nonzero"></path></g><g></g></g><defs><clipPath id="SvgjsClipPath121739"><path d=" M 1.0199617664716634 -7.307731749072737 h 6.109643117447298 v 7.057731749072737 h -6.109643117447298 Z"></path></clipPath><clipPath id="SvgjsClipPath1217371e2b1b97-83a4-4a28-96b1-f75832f1807d"><path d=" M 1.0199617664716634 -7.307731749072737 L 7.129604883918962 -7.307731749072737 L 7.129604883918962 -0.25 L 1.0199617664716634 -0.25 Z"></path></clipPath></defs></svg>

